<mxfile host="app.diagrams.net" modified="2023-08-18T09:55:11.883Z" agent="Mozilla/5.0 (Windows NT 10.0; Win64; x64; rv:109.0) Gecko/20100101 Firefox/116.0" etag="C9vLgQsxB570FSis_2Vv" version="21.6.8" type="github">
  <diagram name="Sivu-1" id="u8w1255cLJUokRJfRU84">
    <mxGraphModel dx="1774" dy="1679" grid="1" gridSize="5" guides="1" tooltips="1" connect="1" arrows="1" fold="1" page="1" pageScale="1" pageWidth="827" pageHeight="1169" math="1" shadow="0">
      <root>
        <mxCell id="0" />
        <mxCell id="1" parent="0" />
        <mxCell id="19g5wpBG-z4xOQPj4vC4-21" value="" style="endArrow=none;html=1;rounded=0;exitX=0.498;exitY=0.138;exitDx=0;exitDy=0;exitPerimeter=0;" parent="1" source="19g5wpBG-z4xOQPj4vC4-19" edge="1">
          <mxGeometry width="50" height="50" relative="1" as="geometry">
            <mxPoint x="585" y="360" as="sourcePoint" />
            <mxPoint x="585" y="340" as="targetPoint" />
          </mxGeometry>
        </mxCell>
        <mxCell id="ajAWkNfieeJ6ma5MIzeF-5" value="&lt;font style=&quot;font-size: 14px;&quot;&gt;$$LMS$$&lt;/font&gt;" style="rounded=0;whiteSpace=wrap;html=1;fillColor=#ffe6cc;strokeColor=#d79b00;" parent="1" vertex="1">
          <mxGeometry x="260" y="260" width="100" height="40" as="geometry" />
        </mxCell>
        <mxCell id="ajAWkNfieeJ6ma5MIzeF-7" value="" style="endArrow=classic;html=1;rounded=0;entryX=0;entryY=0.5;entryDx=0;entryDy=0;" parent="1" target="ajAWkNfieeJ6ma5MIzeF-5" edge="1">
          <mxGeometry width="50" height="50" relative="1" as="geometry">
            <mxPoint x="185" y="210" as="sourcePoint" />
            <mxPoint x="265" y="270" as="targetPoint" />
            <Array as="points">
              <mxPoint x="185" y="280" />
            </Array>
          </mxGeometry>
        </mxCell>
        <mxCell id="19g5wpBG-z4xOQPj4vC4-25" style="edgeStyle=orthogonalEdgeStyle;rounded=0;orthogonalLoop=1;jettySize=auto;html=1;entryX=0;entryY=0.5;entryDx=0;entryDy=0;" parent="1" source="ajAWkNfieeJ6ma5MIzeF-12" target="ajAWkNfieeJ6ma5MIzeF-1" edge="1">
          <mxGeometry relative="1" as="geometry" />
        </mxCell>
        <mxCell id="ajAWkNfieeJ6ma5MIzeF-12" value="&lt;font style=&quot;font-size: 18px;&quot;&gt;$$S(z)$$&lt;/font&gt;" style="rounded=0;whiteSpace=wrap;html=1;fillColor=#e1d5e7;strokeColor=#9673a6;" parent="1" vertex="1">
          <mxGeometry x="615" y="100.00000000000001" width="80" height="40" as="geometry" />
        </mxCell>
        <mxCell id="ajAWkNfieeJ6ma5MIzeF-18" value="" style="endArrow=classic;html=1;rounded=0;exitX=0.5;exitY=0;exitDx=0;exitDy=0;" parent="1" source="ajAWkNfieeJ6ma5MIzeF-5" edge="1">
          <mxGeometry width="50" height="50" relative="1" as="geometry">
            <mxPoint x="300" y="260" as="sourcePoint" />
            <mxPoint x="320" y="170" as="targetPoint" />
            <Array as="points">
              <mxPoint x="315" y="250" />
              <mxPoint x="295" y="250" />
            </Array>
          </mxGeometry>
        </mxCell>
        <mxCell id="ajAWkNfieeJ6ma5MIzeF-3" value="&lt;font style=&quot;font-size: 14px;&quot;&gt;$$W(z)$$&lt;/font&gt;" style="rounded=0;whiteSpace=wrap;html=1;fillColor=#ffe6cc;strokeColor=#d79b00;" parent="1" vertex="1">
          <mxGeometry x="260" y="190" width="80" height="40" as="geometry" />
        </mxCell>
        <mxCell id="ajAWkNfieeJ6ma5MIzeF-20" value="&lt;font size=&quot;1&quot; color=&quot;#0000cc&quot;&gt;&lt;i style=&quot;font-size: 14px;&quot;&gt;$$d(n)$$&lt;/i&gt;&lt;/font&gt;" style="text;html=1;strokeColor=none;fillColor=none;align=center;verticalAlign=middle;whiteSpace=wrap;rounded=0;" parent="1" vertex="1">
          <mxGeometry x="705" y="20" width="60" height="30" as="geometry" />
        </mxCell>
        <mxCell id="ajAWkNfieeJ6ma5MIzeF-21" value="&lt;font size=&quot;1&quot; color=&quot;#cc0000&quot;&gt;&lt;i style=&quot;font-size: 14px;&quot;&gt;$$y(n)$$&lt;/i&gt;&lt;/font&gt;" style="text;html=1;strokeColor=none;fillColor=none;align=center;verticalAlign=middle;whiteSpace=wrap;rounded=0;" parent="1" vertex="1">
          <mxGeometry x="690" y="90.00000000000001" width="60" height="30" as="geometry" />
        </mxCell>
        <mxCell id="ajAWkNfieeJ6ma5MIzeF-22" value="&lt;font size=&quot;1&quot; color=&quot;#009900&quot;&gt;&lt;i style=&quot;font-size: 14px;&quot;&gt;$$e(n)$$&lt;/i&gt;&lt;/font&gt;" style="text;html=1;strokeColor=none;fillColor=none;align=center;verticalAlign=middle;whiteSpace=wrap;rounded=0;" parent="1" vertex="1">
          <mxGeometry x="705" y="150" width="60" height="30" as="geometry" />
        </mxCell>
        <mxCell id="ajAWkNfieeJ6ma5MIzeF-23" value="&lt;font size=&quot;1&quot; color=&quot;#7f00ff&quot;&gt;&lt;i style=&quot;font-size: 14px;&quot;&gt;$$u_2(n)$$&lt;/i&gt;&lt;/font&gt;" style="text;html=1;strokeColor=none;fillColor=none;align=center;verticalAlign=middle;whiteSpace=wrap;rounded=0;" parent="1" vertex="1">
          <mxGeometry x="335" y="180" width="60" height="30" as="geometry" />
        </mxCell>
        <mxCell id="CBB9v3UhZUv1EWWix4jz-1" value="&lt;font style=&quot;font-size: 14px;&quot;&gt;$$\hat {S}(z)$$&lt;/font&gt;" style="rounded=0;whiteSpace=wrap;html=1;fillColor=#ffe6cc;strokeColor=#d79b00;" parent="1" vertex="1">
          <mxGeometry x="165" y="235" width="40" height="35" as="geometry" />
        </mxCell>
        <mxCell id="CBB9v3UhZUv1EWWix4jz-2" value="&lt;font size=&quot;1&quot; color=&quot;#cc6600&quot;&gt;&lt;i style=&quot;font-size: 14px;&quot;&gt;$$\hat{x}_2(n)$$&lt;/i&gt;&lt;/font&gt;" style="text;html=1;strokeColor=none;fillColor=none;align=center;verticalAlign=middle;whiteSpace=wrap;rounded=0;" parent="1" vertex="1">
          <mxGeometry x="195" y="280" width="60" height="30" as="geometry" />
        </mxCell>
        <mxCell id="19g5wpBG-z4xOQPj4vC4-1" value="&lt;font style=&quot;font-size: 18px;&quot;&gt;$$\hat {S}(z)$$&lt;/font&gt;" style="rounded=0;whiteSpace=wrap;html=1;fillColor=#e1d5e7;strokeColor=#9673a6;" parent="1" vertex="1">
          <mxGeometry x="565" y="235" width="40" height="70" as="geometry" />
        </mxCell>
        <mxCell id="19g5wpBG-z4xOQPj4vC4-2" value="" style="endArrow=classic;html=1;rounded=0;" parent="1" source="19g5wpBG-z4xOQPj4vC4-3" edge="1">
          <mxGeometry width="50" height="50" relative="1" as="geometry">
            <mxPoint x="585" y="267.88" as="sourcePoint" />
            <mxPoint x="585" y="447.88" as="targetPoint" />
          </mxGeometry>
        </mxCell>
        <mxCell id="19g5wpBG-z4xOQPj4vC4-3" value="$$+$$" style="ellipse;whiteSpace=wrap;html=1;aspect=fixed;" parent="1" vertex="1">
          <mxGeometry x="575" y="427.88" width="20" height="20" as="geometry" />
        </mxCell>
        <mxCell id="19g5wpBG-z4xOQPj4vC4-6" value="" style="endArrow=classic;html=1;rounded=0;entryX=0.5;entryY=0;entryDx=0;entryDy=0;" parent="1" target="19g5wpBG-z4xOQPj4vC4-1" edge="1">
          <mxGeometry width="50" height="50" relative="1" as="geometry">
            <mxPoint x="585" y="120" as="sourcePoint" />
            <mxPoint x="635" y="160" as="targetPoint" />
          </mxGeometry>
        </mxCell>
        <mxCell id="19g5wpBG-z4xOQPj4vC4-7" value="" style="endArrow=classic;html=1;rounded=0;entryX=1;entryY=0.5;entryDx=0;entryDy=0;" parent="1" source="ajAWkNfieeJ6ma5MIzeF-1" target="19g5wpBG-z4xOQPj4vC4-3" edge="1">
          <mxGeometry width="50" height="50" relative="1" as="geometry">
            <mxPoint x="755" y="110.77" as="sourcePoint" />
            <mxPoint x="805" y="270.77" as="targetPoint" />
            <Array as="points">
              <mxPoint x="755" y="438.77" />
            </Array>
          </mxGeometry>
        </mxCell>
        <mxCell id="19g5wpBG-z4xOQPj4vC4-8" value="" style="endArrow=classic;html=1;rounded=0;exitX=0;exitY=0.5;exitDx=0;exitDy=0;entryX=0;entryY=0.5;entryDx=0;entryDy=0;" parent="1" source="19g5wpBG-z4xOQPj4vC4-3" target="4y-7fdVHK5KoAx1oNkdf-2" edge="1">
          <mxGeometry width="50" height="50" relative="1" as="geometry">
            <mxPoint x="255" y="410" as="sourcePoint" />
            <mxPoint y="130" as="targetPoint" />
            <Array as="points">
              <mxPoint y="438" />
              <mxPoint y="210" />
              <mxPoint y="120" />
              <mxPoint x="20" y="120" />
              <mxPoint x="20" y="35" />
            </Array>
          </mxGeometry>
        </mxCell>
        <mxCell id="19g5wpBG-z4xOQPj4vC4-10" value="" style="verticalLabelPosition=bottom;verticalAlign=top;html=1;shape=mxgraph.basic.arc;startAngle=0.5;endAngle=0;rotation=-180;" parent="1" vertex="1">
          <mxGeometry x="575" y="320" width="20" height="20" as="geometry" />
        </mxCell>
        <mxCell id="19g5wpBG-z4xOQPj4vC4-11" value="" style="endArrow=classic;html=1;rounded=0;entryX=0.5;entryY=0;entryDx=0;entryDy=0;exitX=0.5;exitY=1;exitDx=0;exitDy=0;" parent="1" source="19g5wpBG-z4xOQPj4vC4-19" target="19g5wpBG-z4xOQPj4vC4-3" edge="1">
          <mxGeometry width="50" height="50" relative="1" as="geometry">
            <mxPoint x="585" y="412.88" as="sourcePoint" />
            <mxPoint x="635" y="347.88" as="targetPoint" />
          </mxGeometry>
        </mxCell>
        <mxCell id="19g5wpBG-z4xOQPj4vC4-12" value="" style="endArrow=none;html=1;rounded=0;entryX=0.5;entryY=1;entryDx=0;entryDy=0;" parent="1" source="19g5wpBG-z4xOQPj4vC4-10" target="19g5wpBG-z4xOQPj4vC4-1" edge="1">
          <mxGeometry width="50" height="50" relative="1" as="geometry">
            <mxPoint x="535" y="360" as="sourcePoint" />
            <mxPoint x="585" y="310" as="targetPoint" />
          </mxGeometry>
        </mxCell>
        <mxCell id="19g5wpBG-z4xOQPj4vC4-13" value="" style="endArrow=none;html=1;rounded=0;exitX=0;exitY=0.5;exitDx=0;exitDy=0;exitPerimeter=0;" parent="1" source="19g5wpBG-z4xOQPj4vC4-10" edge="1">
          <mxGeometry width="50" height="50" relative="1" as="geometry">
            <mxPoint x="575" y="330.77" as="sourcePoint" />
            <mxPoint x="755" y="330.77" as="targetPoint" />
          </mxGeometry>
        </mxCell>
        <mxCell id="19g5wpBG-z4xOQPj4vC4-14" value="" style="endArrow=classic;html=1;rounded=0;exitX=0.126;exitY=0.496;exitDx=0;exitDy=0;exitPerimeter=0;entryX=1;entryY=0.5;entryDx=0;entryDy=0;" parent="1" source="19g5wpBG-z4xOQPj4vC4-10" target="4y-7fdVHK5KoAx1oNkdf-15" edge="1">
          <mxGeometry width="50" height="50" relative="1" as="geometry">
            <mxPoint x="455" y="330" as="sourcePoint" />
            <mxPoint x="385" y="330" as="targetPoint" />
            <Array as="points">
              <mxPoint x="460" y="331" />
              <mxPoint x="460" y="280" />
            </Array>
          </mxGeometry>
        </mxCell>
        <mxCell id="19g5wpBG-z4xOQPj4vC4-16" value="" style="triangle;whiteSpace=wrap;html=1;rotation=90;" parent="1" vertex="1">
          <mxGeometry x="571.25" y="356.63" width="27.5" height="30" as="geometry" />
        </mxCell>
        <mxCell id="19g5wpBG-z4xOQPj4vC4-19" value="$$-1$$" style="text;html=1;strokeColor=none;fillColor=none;align=center;verticalAlign=middle;whiteSpace=wrap;rounded=0;" parent="1" vertex="1">
          <mxGeometry x="575" y="356.63" width="20" height="19.62" as="geometry" />
        </mxCell>
        <mxCell id="19g5wpBG-z4xOQPj4vC4-22" value="&lt;div style=&quot;font-size: 15px;&quot;&gt;&lt;font style=&quot;font-size: 14px;&quot; color=&quot;#0000cc&quot;&gt;$$\hat{d}(n)$$&lt;/font&gt;&lt;/div&gt;" style="text;html=1;strokeColor=none;fillColor=none;align=center;verticalAlign=middle;whiteSpace=wrap;rounded=0;" parent="1" vertex="1">
          <mxGeometry x="-30" y="90" width="60" height="30" as="geometry" />
        </mxCell>
        <mxCell id="ajAWkNfieeJ6ma5MIzeF-1" value="$$+$$" style="ellipse;whiteSpace=wrap;html=1;aspect=fixed;" parent="1" vertex="1">
          <mxGeometry x="745" y="110.00000000000001" width="20" height="20" as="geometry" />
        </mxCell>
        <mxCell id="19g5wpBG-z4xOQPj4vC4-26" value="" style="endArrow=classic;html=1;rounded=0;entryX=0.5;entryY=0;entryDx=0;entryDy=0;" parent="1" target="ajAWkNfieeJ6ma5MIzeF-1" edge="1">
          <mxGeometry width="50" height="50" relative="1" as="geometry">
            <mxPoint x="755" y="-35" as="sourcePoint" />
            <mxPoint x="785" y="30" as="targetPoint" />
          </mxGeometry>
        </mxCell>
        <mxCell id="19g5wpBG-z4xOQPj4vC4-27" value="&lt;font size=&quot;1&quot; color=&quot;#cc0000&quot;&gt;&lt;i style=&quot;font-size: 14px;&quot;&gt;$$\hat{y}(n)$$&lt;/i&gt;&lt;/font&gt;" style="text;html=1;strokeColor=none;fillColor=none;align=center;verticalAlign=middle;whiteSpace=wrap;rounded=0;" parent="1" vertex="1">
          <mxGeometry x="530" y="390" width="60" height="30" as="geometry" />
        </mxCell>
        <mxCell id="4y-7fdVHK5KoAx1oNkdf-12" style="edgeStyle=orthogonalEdgeStyle;rounded=0;orthogonalLoop=1;jettySize=auto;html=1;entryX=0;entryY=0.5;entryDx=0;entryDy=0;" edge="1" parent="1" source="4y-7fdVHK5KoAx1oNkdf-2" target="4y-7fdVHK5KoAx1oNkdf-9">
          <mxGeometry relative="1" as="geometry" />
        </mxCell>
        <mxCell id="4y-7fdVHK5KoAx1oNkdf-2" value="&lt;font style=&quot;font-size: 18px;&quot;&gt;$$D(z)$$&lt;/font&gt;" style="rounded=0;whiteSpace=wrap;html=1;fillColor=#dae8fc;strokeColor=#6c8ebf;" vertex="1" parent="1">
          <mxGeometry x="60" y="15" width="80" height="40" as="geometry" />
        </mxCell>
        <mxCell id="4y-7fdVHK5KoAx1oNkdf-14" style="edgeStyle=orthogonalEdgeStyle;rounded=0;orthogonalLoop=1;jettySize=auto;html=1;entryX=0;entryY=0.5;entryDx=0;entryDy=0;" edge="1" parent="1" source="4y-7fdVHK5KoAx1oNkdf-5" target="ajAWkNfieeJ6ma5MIzeF-3">
          <mxGeometry relative="1" as="geometry" />
        </mxCell>
        <mxCell id="4y-7fdVHK5KoAx1oNkdf-5" value="&lt;font style=&quot;font-size: 18px;&quot;&gt;$$A(z)$$&lt;/font&gt;" style="rounded=0;whiteSpace=wrap;html=1;fillColor=#ffe6cc;strokeColor=#d79b00;" vertex="1" parent="1">
          <mxGeometry x="60" y="190" width="80" height="40" as="geometry" />
        </mxCell>
        <mxCell id="4y-7fdVHK5KoAx1oNkdf-6" value="&lt;font style=&quot;font-size: 14px;&quot;&gt;$$LMS$$&lt;/font&gt;" style="rounded=0;whiteSpace=wrap;html=1;fillColor=#dae8fc;strokeColor=#6c8ebf;" vertex="1" parent="1">
          <mxGeometry x="260" y="85" width="100" height="40" as="geometry" />
        </mxCell>
        <mxCell id="4y-7fdVHK5KoAx1oNkdf-7" value="" style="endArrow=classic;html=1;rounded=0;entryX=0;entryY=0.5;entryDx=0;entryDy=0;" edge="1" parent="1" target="4y-7fdVHK5KoAx1oNkdf-6">
          <mxGeometry width="50" height="50" relative="1" as="geometry">
            <mxPoint x="185" y="35" as="sourcePoint" />
            <mxPoint x="265" y="95" as="targetPoint" />
            <Array as="points">
              <mxPoint x="185" y="105" />
            </Array>
          </mxGeometry>
        </mxCell>
        <mxCell id="4y-7fdVHK5KoAx1oNkdf-8" value="" style="endArrow=classic;html=1;rounded=0;exitX=0.5;exitY=0;exitDx=0;exitDy=0;" edge="1" parent="1" source="4y-7fdVHK5KoAx1oNkdf-6">
          <mxGeometry width="50" height="50" relative="1" as="geometry">
            <mxPoint x="310" y="45" as="sourcePoint" />
            <mxPoint x="320" y="-10" as="targetPoint" />
            <Array as="points">
              <mxPoint x="315" y="70" />
              <mxPoint x="295" y="70" />
            </Array>
          </mxGeometry>
        </mxCell>
        <mxCell id="4y-7fdVHK5KoAx1oNkdf-9" value="&lt;font style=&quot;font-size: 14px;&quot;&gt;$$W(z)$$&lt;/font&gt;" style="rounded=0;whiteSpace=wrap;html=1;fillColor=#dae8fc;strokeColor=#6c8ebf;" vertex="1" parent="1">
          <mxGeometry x="260" y="15" width="80" height="40" as="geometry" />
        </mxCell>
        <mxCell id="4y-7fdVHK5KoAx1oNkdf-10" value="&lt;font style=&quot;font-size: 14px;&quot;&gt;$$\hat {S}(z)$$&lt;/font&gt;" style="rounded=0;whiteSpace=wrap;html=1;fillColor=#dae8fc;strokeColor=#6c8ebf;" vertex="1" parent="1">
          <mxGeometry x="165" y="60" width="40" height="35" as="geometry" />
        </mxCell>
        <mxCell id="4y-7fdVHK5KoAx1oNkdf-11" value="&lt;font size=&quot;1&quot; color=&quot;#cc6600&quot;&gt;&lt;i style=&quot;font-size: 14px;&quot;&gt;$$\hat{x}_1(n)$$&lt;/i&gt;&lt;/font&gt;" style="text;html=1;strokeColor=none;fillColor=none;align=center;verticalAlign=middle;whiteSpace=wrap;rounded=0;" vertex="1" parent="1">
          <mxGeometry x="200" y="100" width="60" height="30" as="geometry" />
        </mxCell>
        <mxCell id="4y-7fdVHK5KoAx1oNkdf-13" value="" style="endArrow=classic;html=1;rounded=0;entryX=-0.018;entryY=0.6;entryDx=0;entryDy=0;entryPerimeter=0;" edge="1" parent="1" target="4y-7fdVHK5KoAx1oNkdf-5">
          <mxGeometry width="50" height="50" relative="1" as="geometry">
            <mxPoint x="20" y="120" as="sourcePoint" />
            <mxPoint x="20" y="220" as="targetPoint" />
            <Array as="points">
              <mxPoint x="20" y="214" />
            </Array>
          </mxGeometry>
        </mxCell>
        <mxCell id="4y-7fdVHK5KoAx1oNkdf-16" style="edgeStyle=orthogonalEdgeStyle;rounded=0;orthogonalLoop=1;jettySize=auto;html=1;" edge="1" parent="1" source="4y-7fdVHK5KoAx1oNkdf-15" target="ajAWkNfieeJ6ma5MIzeF-5">
          <mxGeometry relative="1" as="geometry" />
        </mxCell>
        <mxCell id="4y-7fdVHK5KoAx1oNkdf-15" value="&lt;font style=&quot;font-size: 14px;&quot;&gt;$$A(z)$$&lt;/font&gt;" style="rounded=0;whiteSpace=wrap;html=1;fillColor=#ffe6cc;strokeColor=#d79b00;" vertex="1" parent="1">
          <mxGeometry x="395" y="267.12" width="50" height="25.77" as="geometry" />
        </mxCell>
        <mxCell id="4y-7fdVHK5KoAx1oNkdf-20" style="edgeStyle=orthogonalEdgeStyle;rounded=0;orthogonalLoop=1;jettySize=auto;html=1;" edge="1" parent="1" source="4y-7fdVHK5KoAx1oNkdf-17" target="4y-7fdVHK5KoAx1oNkdf-6">
          <mxGeometry relative="1" as="geometry" />
        </mxCell>
        <mxCell id="4y-7fdVHK5KoAx1oNkdf-17" value="&lt;font style=&quot;font-size: 14px;&quot;&gt;$$D(z)$$&lt;/font&gt;" style="rounded=0;whiteSpace=wrap;html=1;fillColor=#dae8fc;strokeColor=#6c8ebf;" vertex="1" parent="1">
          <mxGeometry x="395" y="92.12" width="50" height="25.77" as="geometry" />
        </mxCell>
        <mxCell id="4y-7fdVHK5KoAx1oNkdf-19" value="" style="endArrow=classic;html=1;rounded=0;entryX=1;entryY=0.5;entryDx=0;entryDy=0;" edge="1" parent="1" target="4y-7fdVHK5KoAx1oNkdf-17">
          <mxGeometry width="50" height="50" relative="1" as="geometry">
            <mxPoint x="460" y="280" as="sourcePoint" />
            <mxPoint x="510" y="230" as="targetPoint" />
            <Array as="points">
              <mxPoint x="460" y="105" />
            </Array>
          </mxGeometry>
        </mxCell>
        <mxCell id="4y-7fdVHK5KoAx1oNkdf-24" style="edgeStyle=orthogonalEdgeStyle;rounded=0;orthogonalLoop=1;jettySize=auto;html=1;" edge="1" parent="1" source="4y-7fdVHK5KoAx1oNkdf-21" target="ajAWkNfieeJ6ma5MIzeF-12">
          <mxGeometry relative="1" as="geometry" />
        </mxCell>
        <mxCell id="4y-7fdVHK5KoAx1oNkdf-21" value="$$+$$" style="ellipse;whiteSpace=wrap;html=1;aspect=fixed;" vertex="1" parent="1">
          <mxGeometry x="545" y="109.99999999999999" width="20" height="20" as="geometry" />
        </mxCell>
        <mxCell id="4y-7fdVHK5KoAx1oNkdf-22" value="" style="endArrow=classic;html=1;rounded=0;entryX=0;entryY=1;entryDx=0;entryDy=0;" edge="1" parent="1" target="4y-7fdVHK5KoAx1oNkdf-21">
          <mxGeometry width="50" height="50" relative="1" as="geometry">
            <mxPoint x="340" y="210" as="sourcePoint" />
            <mxPoint x="390" y="160" as="targetPoint" />
            <Array as="points">
              <mxPoint x="485" y="210" />
            </Array>
          </mxGeometry>
        </mxCell>
        <mxCell id="4y-7fdVHK5KoAx1oNkdf-23" value="" style="endArrow=classic;html=1;rounded=0;entryX=0;entryY=0;entryDx=0;entryDy=0;" edge="1" parent="1" target="4y-7fdVHK5KoAx1oNkdf-21">
          <mxGeometry width="50" height="50" relative="1" as="geometry">
            <mxPoint x="340" y="35" as="sourcePoint" />
            <mxPoint x="390" y="-15" as="targetPoint" />
            <Array as="points">
              <mxPoint x="485" y="35" />
            </Array>
          </mxGeometry>
        </mxCell>
        <mxCell id="4y-7fdVHK5KoAx1oNkdf-25" value="&lt;font size=&quot;1&quot; color=&quot;#7f00ff&quot;&gt;&lt;i style=&quot;font-size: 14px;&quot;&gt;$$u_1(n)$$&lt;/i&gt;&lt;/font&gt;" style="text;html=1;strokeColor=none;fillColor=none;align=center;verticalAlign=middle;whiteSpace=wrap;rounded=0;" vertex="1" parent="1">
          <mxGeometry x="340" y="5" width="60" height="30" as="geometry" />
        </mxCell>
        <mxCell id="4y-7fdVHK5KoAx1oNkdf-26" value="&lt;font size=&quot;1&quot; color=&quot;#7f00ff&quot;&gt;&lt;i style=&quot;font-size: 14px;&quot;&gt;$$u(n)$$&lt;/i&gt;&lt;/font&gt;" style="text;html=1;strokeColor=none;fillColor=none;align=center;verticalAlign=middle;whiteSpace=wrap;rounded=0;" vertex="1" parent="1">
          <mxGeometry x="560" y="90" width="60" height="30" as="geometry" />
        </mxCell>
        <mxCell id="4y-7fdVHK5KoAx1oNkdf-27" value="&lt;font size=&quot;1&quot; color=&quot;#009900&quot;&gt;&lt;i style=&quot;font-size: 14px;&quot;&gt;$$e_1(n)$$&lt;/i&gt;&lt;/font&gt;" style="text;html=1;strokeColor=none;fillColor=none;align=center;verticalAlign=middle;whiteSpace=wrap;rounded=0;" vertex="1" parent="1">
          <mxGeometry x="350" y="70" width="60" height="30" as="geometry" />
        </mxCell>
        <mxCell id="4y-7fdVHK5KoAx1oNkdf-28" value="&lt;font size=&quot;1&quot; color=&quot;#009900&quot;&gt;&lt;i style=&quot;font-size: 14px;&quot;&gt;$$e_2(n)$$&lt;/i&gt;&lt;/font&gt;" style="text;html=1;strokeColor=none;fillColor=none;align=center;verticalAlign=middle;whiteSpace=wrap;rounded=0;" vertex="1" parent="1">
          <mxGeometry x="350" y="245" width="60" height="30" as="geometry" />
        </mxCell>
      </root>
    </mxGraphModel>
  </diagram>
</mxfile>
